# xmcd
#
# Track frame offsets:
#	150
#	23018
#	39384
#	54741
#	64871
#	84050
#	93893
#	109834
#	122948
#	137463
#
# Disc length: 2032 seconds
#
# Revision: 0
# Processed by: cddbd v1.5.2PL0 Copyright (c) Steve Scherf et al.
# Submitted via: EasyCDDAExtractor 8.2.3.1
#
DISCID=7807ee0a
DTITLE=Les Alexander - Will You Still Talk To Me
DYEAR=2003
DGENRE=Country
TTITLE0=At Home
TTITLE1=Wishing Upon The Stars
TTITLE2=Jacktone Road
TTITLE3=Honky Tonk Blues
TTITLE4=Daddy Wasn't a Saint
TTITLE5=Allergic To the Blues
TTITLE6=Will You Still Talk To Me
TTITLE7=G.U.I.L.T.Y.
TTITLE8=Southbound To Bakersfield
TTITLE9=Satan's Jewel Crown
EXTD=
EXTT0=
EXTT1=
EXTT2=
EXTT3=
EXTT4=
EXTT5=
EXTT6=
EXTT7=
EXTT8=
EXTT9=
PLAYORDER=
